<svg xmlns="http://www.w3.org/2000/svg" width="1800" height="638" fill="none" viewBox="0 0 1800 638"><path fill="#000" fill-rule="evenodd" d="M1437.71 441.866h46.58V262.905h-46.58zM1437.71 242.449h46.58v-46.515h-46.58zM1366.58 441.85h46.58v-46.515h-46.58zM1037.17 417.571c2.72 7.203 6.86 12.838 11.79 17.243 4.99 4.468 10.85 7.95 17.79 9.929 7.06 1.975 14.84 2.749 23.08 2.749 8.51 0 16.11-.884 22.59-2.631 6.02-1.614 11.79-3.899 17.15-6.798v-32.871c-8.54 3.685-16.52 5.022-25.62 5.447-9.61.446-15.3-2.298-20.04-6.797-4.95-4.717-7.59-10.868-7.59-21.185v-99.418h53.25v-40.79h-53.25v-46.515h-43.28v46.515h-25.94v40.79h25.94v106.752c0 11.027 1.38 20.302 4.13 27.58M756.457 302.968H640.486v48.1h65.122c-3.403 13.74-10.123 26.057-19.759 35.896-14.543 14.841-34.704 23.014-56.773 23.014-45.806 0-83.068-37.216-83.068-82.96 0-45.745 37.262-82.962 83.068-82.962 24.532 0 47.084 10.483 62.719 28.57l37.287-30.428c-24.723-28.931-61.402-46.241-100.006-46.241-72.362 0-131.229 58.794-131.229 131.061 0 72.266 58.867 131.058 131.229 131.058 35.128 0 67.514-12.642 91.191-36.804 19.87-20.28 33.04-48.574 35.571-76.917 1.235-13.828 1.345-27.555.619-41.387M1248.57 279.559c26.72 0 49.5 16.774 58.41 40.351h-116.82c8.9-23.577 31.69-40.351 58.41-40.351m104.53 78.369c.79-5.228 1.22-10.581 1.22-16.028 0-58.317-47.35-105.591-105.75-105.591-58.38 0-105.73 47.274-105.73 105.591s47.35 105.588 105.73 105.588c40.06 0 74.91-22.248 92.86-55.04l-39.07-18.931c-10.86 18.382-30.88 30.722-53.79 30.722-28.95 0-53.29-19.685-60.35-46.382h120.69c0 .023-.01.046-.01.071zM877.726 404.247c-34.475 0-62.426-27.913-62.426-62.346 0-34.434 27.951-62.347 62.426-62.347 34.478 0 62.426 27.913 62.426 62.347s-27.948 62.346-62.426 62.346m-.004-167.755c-58.383 0-105.71 47.269-105.71 105.576s47.327 105.577 105.71 105.577 105.709-47.27 105.709-105.577-47.326-105.576-105.709-105.576" clip-rule="evenodd"/><mask id="a" width="1640" height="375" x="80" y="131" maskUnits="userSpaceOnUse"><path fill="#fff" d="M80 506h1640V131H80z"/></mask><g fill-rule="evenodd" clip-rule="evenodd" mask="url(#a)"><path fill="#000" d="M940.153 441.86h43.276V242.282h-43.276zM1614.26 404.238c-34.48 0-62.42-27.909-62.42-62.34 0-34.429 27.94-62.339 62.42-62.339 34.47 0 62.42 27.91 62.42 62.339 0 34.431-27.95 62.34-62.42 62.34m0-167.929c-58.39 0-105.74 47.271-105.74 105.589 0 58.316 47.35 105.59 105.74 105.59S1720 400.214 1720 341.898c0-58.318-47.35-105.589-105.74-105.589"/><path fill="#0051D2" d="M267.738 421.623c-57.029 0-103.256-46.171-103.256-103.124 0-56.956 46.227-103.125 103.256-103.125V131C164.052 131 80 214.945 80 318.499s84.052 187.499 187.738 187.499 187.736-83.945 187.736-187.499h-84.481c0 56.953-46.23 103.124-103.255 103.124"/><path fill="#14E0A1" d="M267.726 318.491h103.256V215.366H267.726z"/></g></svg>